<?xml version="1.0" encoding="utf-8"?>
<!-- Generator: Adobe Illustrator 16.0.0, SVG Export Plug-In . SVG Version: 6.00 Build 0)  -->
<!DOCTYPE svg PUBLIC "-//W3C//DTD SVG 1.1//EN" "http://www.w3.org/Graphics/SVG/1.1/DTD/svg11.dtd">
<svg version="1.1" xmlns="http://www.w3.org/2000/svg" xmlns:xlink="http://www.w3.org/1999/xlink" x="0px" y="0px" width="100px"
	 height="130px" viewBox="0 0 70 100" enable-background="new 0 0 70 100" xml:space="preserve">
<g id="docpessoal">
	<ellipse fill="#4E6DB4" cx="35.53" cy="46.926" rx="25.272" ry="24.813" width="100px" height="130px"/>
</g>
<g id="documento">
	<g>
		<g>
			<path fill="#FAA427" d="M26.378,35.731c0,8.862,0,17.724,0,26.586c0,0.272,0.228,0.5,0.5,0.5c5.854,0,11.707,0,17.56,0
				c0.273,0,0.499-0.228,0.5-0.5c0.02-8.841-0.101-17.693,0.108-26.532c0.007-0.277-0.232-0.494-0.5-0.5
				c-5.887-0.139-11.78-0.054-17.668-0.054c-0.645,0-0.645,1,0,1c5.888,0,11.782-0.085,17.668,0.054
				c-0.167-0.167-0.333-0.333-0.5-0.5c-0.209,8.839-0.089,17.691-0.108,26.532c0.167-0.167,0.333-0.333,0.5-0.5
				c-5.854,0-11.707,0-17.56,0c0.167,0.167,0.333,0.333,0.5,0.5c0-8.862,0-17.724,0-26.586
				C27.378,35.086,26.378,35.086,26.378,35.731z"/>
		</g>
	</g>
	<g>
		<g>
			<path fill="#FAA427" d="M28.36,54.458c4.89,0,9.781,0,14.67,0c0.645,0,0.645-1,0-1c-4.89,0-9.78,0-14.67,0
				C27.715,53.458,27.715,54.458,28.36,54.458L28.36,54.458z"/>
		</g>
	</g>
	<g>
		<g>
			<path fill="#FAA427" d="M28.414,51.375c4.779,0,9.558,0,14.337,0c0.645,0,0.645-1,0-1c-4.779,0-9.558,0-14.337,0
				C27.769,50.375,27.769,51.375,28.414,51.375L28.414,51.375z"/>
		</g>
	</g>
	<g>
		<g>
			<path fill="#FAA427" d="M28.58,46.375c3.134,0,6.268,0,9.402,0c0.645,0,0.645-1,0-1c-3.134,0-6.268,0-9.402,0
				C27.935,45.375,27.935,46.375,28.58,46.375L28.58,46.375z"/>
		</g>
	</g>
	<g>
		<g>
			<path fill="#FAA427" d="M28.579,42.458c3.134,0,6.268,0,9.401,0c0.645,0,0.645-1,0-1c-3.133,0-6.268,0-9.401,0
				C27.934,41.458,27.934,42.458,28.579,42.458L28.579,42.458z"/>
		</g>
	</g>
	<g>
		<g>
			<path fill="#FAA427" d="M28.58,38.514c3.134,0,6.268,0,9.402,0c0.645,0,0.645-1,0-1c-3.134,0-6.268,0-9.402,0
				C27.935,37.514,27.935,38.514,28.58,38.514L28.58,38.514z"/>
		</g>
	</g>
</g>
</svg>
