<?xml version="1.0" encoding="utf-8"?>
<!-- Generator: Adobe Illustrator 16.0.0, SVG Export Plug-In . SVG Version: 6.00 Build 0)  -->
<!DOCTYPE svg PUBLIC "-//W3C//DTD SVG 1.1//EN" "http://www.w3.org/Graphics/SVG/1.1/DTD/svg11.dtd">
<svg version="1.1" xmlns="http://www.w3.org/2000/svg" xmlns:xlink="http://www.w3.org/1999/xlink" x="0px" y="0px" width="70px"
	 height="100px" viewBox="0 0 70 100" enable-background="new 0 0 70 100" xml:space="preserve">
<g id="prefeitura">
	<ellipse id="circuloPrefeitura" fill="#cac9c5" cx="34.53" cy="49.926" rx="25.272" ry="24.813"/>
</g>
<g id="casinha">
	<path fill="#F28122" d="M21.22,57.525l-3.62,5.491c0,0-0.543,1.116,0.724,1.116c1.266,0,32.59,0,32.59,0s0.996-0.096,0.544-1.116
		c-0.453-1.024-3.26-5.491-3.26-5.491l-0.18-12.751c0,0-0.365-1.443-1.406-1.443c-1.038,0-24.216,0-24.216,0
		s-1.357,0.047-1.357,1.443C21.039,46.17,21.22,57.525,21.22,57.525z"/>
	<path id="ponto1" fill="#cac9c5" d="M24.569,59.015h3.622V48.217c0,0-1.72-3.909-3.622,0V59.015z"/>
	<path id="ponto2" fill="#cac9c5" d="M32.719,59.015h3.621V48.217c0,0-1.72-3.909-3.621,0V59.015z"/>
	<path id="ponto3" fill="#cac9c5" d="M40.867,59.015h3.62V48.217c0,0-1.722-3.909-3.62,0V59.015z"/>
	<polygon fill="#F28122" points="21.4,41.424 47.654,41.424 34.53,32.769 	"/>
</g>
</svg>
